<?xml version="1.0" standalone="no"?>
<!DOCTYPE svg PUBLIC "-//W3C//DTD SVG 20010904//EN"
 "http://www.w3.org/TR/2001/REC-SVG-20010904/DTD/svg10.dtd">
<svg version="1.0" xmlns="http://www.w3.org/2000/svg"
 width="348.000000pt" height="364.000000pt" viewBox="0 0 348.000000 364.000000"
 preserveAspectRatio="xMidYMid meet">

<g transform="translate(0.000000,364.000000) scale(0.100000,-0.100000)"
fill="#000000" stroke="none">
<path d="M670 3566 c-208 -45 -389 -171 -488 -341 -126 -215 -136 -470 -27
-689 66 -135 180 -248 321 -320 37 -20 69 -34 71 -32 2 2 1 34 -3 72 l-6 70
-55 34 c-77 49 -167 148 -208 230 -85 170 -86 353 -3 527 46 97 167 217 268
267 187 91 392 83 569 -21 64 -39 172 -144 204 -201 l18 -31 -43 -22 c-62 -31
-188 -163 -231 -239 -51 -93 -80 -205 -80 -315 0 -114 23 -207 75 -315 34 -69
59 -102 133 -175 150 -151 302 -211 517 -203 73 3 133 11 171 23 56 18 59 18
88 1 23 -14 41 -16 80 -11 27 4 49 5 49 2 0 -2 -20 -31 -45 -63 -25 -31 -45
-60 -45 -64 0 -3 27 -32 59 -64 l59 -59 117 7 c110 7 117 7 111 -11 -3 -10
-13 -49 -22 -86 l-17 -69 54 -54 54 -55 93 3 c89 3 93 2 88 -17 -3 -11 -11
-44 -18 -73 l-11 -53 66 -67 66 -66 75 31 75 31 37 -32 38 -32 -18 -43 c-9
-24 -16 -45 -14 -46 3 -3 272 -20 413 -27 l50 -2 12 49 c7 28 14 67 15 87 3
41 28 14 -805 853 l-307 311 22 59 c19 51 22 80 22 200 0 127 -2 146 -26 207
-40 106 -86 176 -173 264 -64 64 -98 89 -172 126 -125 63 -216 82 -352 75 -58
-4 -113 -8 -122 -9 -10 -2 -35 26 -70 77 -93 136 -253 248 -414 291 -85 22
-236 26 -315 10z m726 -758 c-7 -92 -6 -97 16 -112 12 -9 35 -16 50 -16 45 0
60 36 66 151 3 54 8 99 13 99 19 0 83 -68 100 -105 23 -49 24 -123 4 -173 -76
-181 -351 -155 -401 38 -25 97 21 201 108 243 32 15 33 15 41 -6 5 -12 6 -65
3 -119z"/>
<path d="M801 2701 c-40 -55 -91 -176 -107 -251 -11 -52 -14 -104 -11 -170 18
-325 246 -588 565 -650 52 -11 65 -17 77 -40 9 -18 32 -34 67 -47 l53 -21 -72
-33 c-40 -17 -73 -37 -73 -43 0 -6 11 -45 25 -87 l26 -76 104 -43 c118 -50
115 -35 28 -132 l-42 -46 15 -53 c29 -96 29 -96 114 -135 44 -20 80 -39 80
-41 0 -3 -21 -29 -46 -58 l-45 -53 28 -90 c27 -88 29 -90 63 -96 19 -3 56 -6
81 -6 46 0 47 -1 66 -48 l20 -48 -33 -24 c-18 -14 -34 -30 -34 -35 0 -9 357
-228 386 -237 6 -2 35 25 64 60 l52 63 -222 717 -223 717 -136 0 c-149 1 -231
18 -355 74 -175 79 -329 229 -419 408 -68 134 -103 354 -78 487 6 33 9 61 7
63 -2 2 -13 -9 -25 -26z"/>
</g>
</svg>
